<svg xmlns="http://www.w3.org/2000/svg" width="24" height="24" viewBox="0 0 24 24" fill="none" stroke="currentColor" stroke-width="2" stroke-linecap="round" stroke-linejoin="round">
  <path d="M18 11c0 0-2 1-4 1s-4-1-4-1"/>
  <path d="M10 13v-.5a2.5 2.5 0 0 1 5 0v.5"/>
  <path d="M2 16l1 1c3.2 0 6.7-1 10-3"/>
  <path d="M22 16l-1 1c-3.2 0-6.7-1-10-3"/>
  <path d="M2 12l1 1c3.2 0 6.7-1 10-3"/>
  <path d="M22 12l-1 1c-3.2 0-6.7-1-10-3"/>
  <path d="M2 8l1 1c3.2 0 6.7-1 10-3"/>
  <path d="M22 8l-1 1c-3.2 0-6.7-1-10-3"/>
</svg>
